<svg width="292" height="306" viewBox="0 0 292 306" fill="none" xmlns="http://www.w3.org/2000/svg">
<rect width="292" height="306" rx="100" fill="#0BEAB0" fill-opacity="0.1"/>
<rect x="26.4295" y="23.7207" width="239.495" height="257.571" rx="84" fill="#0BEAB0" fill-opacity="0.2"/>
<path d="M66.2968 170.871H226.783C233.111 170.871 238.247 175.16 238.247 180.445V223.53C238.247 228.819 233.111 233.104 226.783 233.104H66.2968C59.9691 233.104 54.8334 228.819 54.8334 223.53V180.445C54.8334 175.16 59.9691 170.871 66.2968 170.871Z" fill="#07AE83"/>
<path d="M146.54 57.3486C152.476 57.3486 157.466 61.1602 159.349 66.4459H169.283C169.283 56.3978 159.103 48.2512 146.54 48.2512C133.981 48.2512 123.797 56.3978 123.797 66.4459H133.731C135.614 61.1602 140.609 57.3486 146.54 57.3486Z" fill="#118AB2"/>
<path d="M104.77 66.4459H188.31C208.073 66.4459 224.113 84.0242 224.113 105.698V236.539C224.113 243.768 218.767 249.623 212.179 249.623H80.9015C74.3136 249.623 68.9671 243.768 68.9671 236.539V105.698C68.9671 84.0242 84.9948 66.4459 104.77 66.4459Z" fill="#059B74"/>
<path d="M86.8684 66.4459H206.211C219.393 66.4459 230.08 79.3707 230.08 95.3125V124.179C230.08 140.121 219.393 153.053 206.211 153.053H86.8684C73.687 153.053 62.9998 140.121 62.9998 124.179V95.3125C63.0002 79.3707 73.687 66.4459 86.8684 66.4459Z" fill="#0BEAB0"/>
<path d="M98.8028 191.756C98.8028 191.756 103.404 203.691 107.939 203.691C112.348 203.691 116.704 191.756 116.704 191.756V66.4459H98.8032L98.8028 191.756ZM176.376 66.4459V191.756C176.376 191.756 180.976 203.691 185.512 203.691C189.921 203.691 194.277 191.756 194.277 191.756V66.4459H176.376Z" fill="#118AB2"/>
<path d="M101.786 179.822H113.721C118.664 179.822 122.671 175.814 122.671 170.871C122.671 165.928 118.664 161.921 113.721 161.921H101.786C96.8432 161.921 92.8358 165.928 92.8358 170.871C92.8358 175.814 96.8432 179.822 101.786 179.822ZM170.409 170.871C170.409 175.814 174.416 179.822 179.359 179.822H191.294C196.237 179.822 200.244 175.814 200.244 170.871C200.244 165.928 196.237 161.92 191.294 161.92H179.359C174.416 161.92 170.409 165.928 170.409 170.871Z" fill="#332A23"/>
<path d="M141.387 115.627C141.387 117.011 141.601 118.361 141.996 119.613C135.672 117.423 130.895 111.609 130.401 104.806C129.907 97.5761 134.074 90.8233 140.81 87.9905C142.556 87.2658 143.445 87.7928 143.824 88.1716C144.187 88.534 144.697 89.4069 143.972 91.0704C143.231 92.7833 142.869 94.595 142.869 96.4726C142.885 99.8325 144.203 102.945 146.344 105.333C143.33 107.738 141.387 111.46 141.387 115.627Z" fill="#032530"/>
<path opacity="0.4" d="M161.496 113.519C158.234 117.949 153.063 120.552 147.545 120.552C147.282 120.552 147.018 120.535 146.755 120.519C145.108 120.453 143.51 120.14 141.995 119.613C141.6 118.361 141.386 117.011 141.386 115.627C141.386 111.46 143.329 107.738 146.343 105.333C148.764 108.051 152.239 109.813 156.077 109.978C157.115 110.027 158.152 109.945 159.173 109.764C161.018 109.434 161.759 110.126 162.023 110.571C162.303 111.015 162.599 111.987 161.496 113.519Z" fill="#085670"/>
</svg>
