<svg width="264" height="51" viewBox="0 0 264 51" fill="none" xmlns="http://www.w3.org/2000/svg">
<path d="M87.04 40.43C85.1767 40.4013 83.6573 40.2007 82.482 39.828C81.3353 39.4553 80.418 38.9393 79.73 38.28C79.0707 37.592 78.612 36.775 78.354 35.829C78.1247 34.8543 78.01 33.765 78.01 32.561V7.664L84.417 6.632V31.271C84.417 31.8443 84.46 32.3603 84.546 32.819C84.632 33.2777 84.7897 33.6647 85.019 33.98C85.277 34.2953 85.6353 34.5533 86.094 34.754C86.5527 34.9547 87.169 35.0837 87.943 35.141L87.04 40.43ZM110.922 39.226C109.833 39.5413 108.428 39.828 106.708 40.086C104.988 40.3727 103.182 40.516 101.29 40.516C99.3698 40.516 97.7645 40.258 96.4745 39.742C95.2131 39.226 94.2098 38.5093 93.4645 37.592C92.7191 36.646 92.1888 35.528 91.8735 34.238C91.5581 32.948 91.4005 31.529 91.4005 29.981V17.382H97.8075V29.207C97.8075 31.271 98.0798 32.7617 98.6245 33.679C99.1691 34.5963 100.187 35.055 101.677 35.055C102.136 35.055 102.623 35.0407 103.139 35.012C103.655 34.9547 104.114 34.8973 104.515 34.84V17.382H110.922V39.226ZM116.937 18.156C118.026 17.8407 119.431 17.554 121.151 17.296C122.871 17.0093 124.677 16.866 126.569 16.866C128.489 16.866 130.08 17.124 131.342 17.64C132.632 18.1273 133.649 18.8297 134.395 19.747C135.14 20.6643 135.67 21.7537 135.986 23.015C136.301 24.2763 136.459 25.681 136.459 27.229V40H130.052V28.003C130.052 25.939 129.779 24.477 129.235 23.617C128.69 22.757 127.672 22.327 126.182 22.327C125.723 22.327 125.236 22.3557 124.72 22.413C124.204 22.4417 123.745 22.4847 123.344 22.542V40H116.937V18.156ZM150.901 35.528C151.532 35.528 152.134 35.5137 152.707 35.485C153.28 35.4563 153.739 35.4133 154.083 35.356V30.497C153.825 30.4397 153.438 30.3823 152.922 30.325C152.406 30.2677 151.933 30.239 151.503 30.239C150.901 30.239 150.328 30.282 149.783 30.368C149.267 30.4253 148.808 30.5543 148.407 30.755C148.006 30.9557 147.69 31.228 147.461 31.572C147.232 31.916 147.117 32.346 147.117 32.862C147.117 33.8653 147.447 34.5677 148.106 34.969C148.794 35.3417 149.726 35.528 150.901 35.528ZM150.385 16.78C152.277 16.78 153.854 16.995 155.115 17.425C156.376 17.855 157.38 18.4713 158.125 19.274C158.899 20.0767 159.444 21.0513 159.759 22.198C160.074 23.3447 160.232 24.6203 160.232 26.025V39.355C159.315 39.5557 158.039 39.785 156.405 40.043C154.771 40.3297 152.793 40.473 150.471 40.473C149.009 40.473 147.676 40.344 146.472 40.086C145.297 39.828 144.279 39.4123 143.419 38.839C142.559 38.237 141.9 37.463 141.441 36.517C140.982 35.571 140.753 34.41 140.753 33.034C140.753 31.7153 141.011 30.5973 141.527 29.68C142.072 28.7627 142.788 28.0317 143.677 27.487C144.566 26.9423 145.583 26.5553 146.73 26.326C147.877 26.068 149.066 25.939 150.299 25.939C151.13 25.939 151.861 25.982 152.492 26.068C153.151 26.1253 153.682 26.2113 154.083 26.326V25.724C154.083 24.6347 153.753 23.7603 153.094 23.101C152.435 22.4417 151.288 22.112 149.654 22.112C148.565 22.112 147.49 22.198 146.429 22.37C145.368 22.5133 144.451 22.7283 143.677 23.015L142.86 17.855C143.233 17.7403 143.691 17.6257 144.236 17.511C144.809 17.3677 145.426 17.253 146.085 17.167C146.744 17.0523 147.432 16.9663 148.149 16.909C148.894 16.823 149.64 16.78 150.385 16.78ZM179.657 23.058C179.083 22.9147 178.41 22.7713 177.636 22.628C176.862 22.456 176.03 22.37 175.142 22.37C174.74 22.37 174.253 22.413 173.68 22.499C173.135 22.5563 172.719 22.628 172.433 22.714V40H166.026V18.586C167.172 18.1847 168.52 17.812 170.068 17.468C171.644 17.0953 173.393 16.909 175.314 16.909C175.658 16.909 176.073 16.9377 176.561 16.995C177.048 17.0237 177.535 17.081 178.023 17.167C178.51 17.2243 178.997 17.3103 179.485 17.425C179.972 17.511 180.388 17.6257 180.732 17.769L179.657 23.058ZM190.573 40H184.166V17.382H190.573V40ZM191.175 10.846C191.175 12.0213 190.788 12.953 190.014 13.641C189.269 14.3003 188.38 14.63 187.348 14.63C186.316 14.63 185.413 14.3003 184.639 13.641C183.894 12.953 183.521 12.0213 183.521 10.846C183.521 9.67067 183.894 8.75333 184.639 8.094C185.413 7.406 186.316 7.062 187.348 7.062C188.38 7.062 189.269 7.406 190.014 8.094C190.788 8.75333 191.175 9.67067 191.175 10.846ZM209.023 28.003C209.023 25.939 208.751 24.477 208.206 23.617C207.69 22.757 206.787 22.327 205.497 22.327C205.096 22.327 204.68 22.3557 204.25 22.413C203.82 22.4417 203.404 22.4847 203.003 22.542V40H196.596V18.156C197.141 18.0127 197.771 17.8693 198.488 17.726C199.233 17.554 200.007 17.4107 200.81 17.296C201.641 17.1527 202.487 17.0523 203.347 16.995C204.207 16.909 205.053 16.866 205.884 16.866C207.518 16.866 208.837 17.081 209.84 17.511C210.872 17.9123 211.718 18.3997 212.377 18.973C213.294 18.3137 214.341 17.7977 215.516 17.425C216.72 17.0523 217.824 16.866 218.827 16.866C220.633 16.866 222.109 17.124 223.256 17.64C224.431 18.1273 225.363 18.8297 226.051 19.747C226.739 20.6643 227.212 21.7537 227.47 23.015C227.728 24.2763 227.857 25.681 227.857 27.229V40H221.45V28.003C221.45 25.939 221.178 24.477 220.633 23.617C220.117 22.757 219.214 22.327 217.924 22.327C217.58 22.327 217.093 22.413 216.462 22.585C215.86 22.757 215.358 22.972 214.957 23.23C215.158 23.8893 215.287 24.5917 215.344 25.337C215.401 26.0537 215.43 26.8277 215.43 27.659V40H209.023V28.003ZM242.318 35.528C242.949 35.528 243.551 35.5137 244.124 35.485C244.697 35.4563 245.156 35.4133 245.5 35.356V30.497C245.242 30.4397 244.855 30.3823 244.339 30.325C243.823 30.2677 243.35 30.239 242.92 30.239C242.318 30.239 241.745 30.282 241.2 30.368C240.684 30.4253 240.225 30.5543 239.824 30.755C239.423 30.9557 239.107 31.228 238.878 31.572C238.649 31.916 238.534 32.346 238.534 32.862C238.534 33.8653 238.864 34.5677 239.523 34.969C240.211 35.3417 241.143 35.528 242.318 35.528ZM241.802 16.78C243.694 16.78 245.271 16.995 246.532 17.425C247.793 17.855 248.797 18.4713 249.542 19.274C250.316 20.0767 250.861 21.0513 251.176 22.198C251.491 23.3447 251.649 24.6203 251.649 26.025V39.355C250.732 39.5557 249.456 39.785 247.822 40.043C246.188 40.3297 244.21 40.473 241.888 40.473C240.426 40.473 239.093 40.344 237.889 40.086C236.714 39.828 235.696 39.4123 234.836 38.839C233.976 38.237 233.317 37.463 232.858 36.517C232.399 35.571 232.17 34.41 232.17 33.034C232.17 31.7153 232.428 30.5973 232.944 29.68C233.489 28.7627 234.205 28.0317 235.094 27.487C235.983 26.9423 237 26.5553 238.147 26.326C239.294 26.068 240.483 25.939 241.716 25.939C242.547 25.939 243.278 25.982 243.909 26.068C244.568 26.1253 245.099 26.2113 245.5 26.326V25.724C245.5 24.6347 245.17 23.7603 244.511 23.101C243.852 22.4417 242.705 22.112 241.071 22.112C239.982 22.112 238.907 22.198 237.846 22.37C236.785 22.5133 235.868 22.7283 235.094 23.015L234.277 17.855C234.65 17.7403 235.108 17.6257 235.653 17.511C236.226 17.3677 236.843 17.253 237.502 17.167C238.161 17.0523 238.849 16.9663 239.566 16.909C240.311 16.823 241.057 16.78 241.802 16.78Z" fill="#032530"/>
<path d="M17.079 43.3717C17.079 45.5148 17.4107 47.6069 18.023 49.546C8.22573 46.1527 0.826756 37.1463 0.0613455 26.6092C-0.704065 15.4087 5.7509 4.94809 16.186 0.55973C18.8905 -0.562873 20.2682 0.253566 20.8551 0.840381C21.4164 1.40168 22.2073 2.75391 21.0847 5.33079C19.9366 7.98421 19.3752 10.7907 19.3752 13.6993C19.4007 18.9041 21.4419 23.7261 24.7587 27.4256C20.0896 31.1506 17.079 36.9167 17.079 43.3717Z" fill="#032530"/>
<path opacity="0.4" d="M48.2295 40.1056C43.1778 46.9688 35.1665 51 26.6194 51C26.2112 51 25.803 50.9745 25.3947 50.949C22.8434 50.8469 20.3685 50.3621 18.0213 49.5457C17.4089 47.6067 17.0773 45.5145 17.0773 43.3714C17.0773 36.9164 20.0879 31.1503 24.7569 27.4253C28.5074 31.6351 33.8908 34.365 39.8355 34.6202C41.4429 34.6967 43.0502 34.5692 44.6321 34.2885C47.4896 33.7782 48.6377 34.8498 49.0459 35.5387C49.4797 36.2275 49.9389 37.7329 48.2295 40.1056Z" fill="#085670"/>
</svg>
