<svg width="73" height="46" viewBox="0 0 73 46" fill="none" xmlns="http://www.w3.org/2000/svg">
<path fill-rule="evenodd" clip-rule="evenodd" d="M6.63257 0H66.3674C70.0279 0 73 2.7552 73 6.1536V38.9664C73 42.3648 70.0279 45.12 66.3674 45.12H6.63257C2.97214 45.12 0 42.3648 0 38.9664V6.1536C0 2.7552 2.97214 0 6.63257 0Z" fill="#ED5565"/>
<path fill-rule="evenodd" clip-rule="evenodd" d="M42.9553 32.3309C42.9369 32.3344 42.9193 32.3405 42.9031 32.3491V32.3472C42.3191 32.6093 41.7143 32.831 41.0781 33.0048C34.967 34.6685 28.616 31.4266 26.8848 25.7683C26.5588 24.7041 26.4146 23.5997 26.4573 22.4947C26.4677 21.4147 26.6554 20.3174 27.0413 19.2346C29.054 13.6214 35.5614 10.537 41.5891 12.3494C42.2148 12.5386 42.8093 12.7747 43.3724 13.0503C43.3933 13.057 43.4141 13.0637 43.4245 13.0694C43.6331 13.1309 43.8521 13.0262 43.9251 12.8352C43.9505 12.7614 43.95 12.6822 43.9238 12.6086C43.8976 12.5351 43.847 12.4709 43.7791 12.4253C42.3407 11.2582 40.6587 10.3735 38.836 9.82561C31.2753 7.55041 23.0993 11.423 20.5755 18.4723C19.6559 21.0283 19.5869 23.7789 20.3774 26.3712C22.557 33.4771 30.5348 37.5485 38.1998 35.4595C40.053 34.9562 41.7769 34.1138 43.2681 32.9827C43.4141 32.8963 43.4871 32.7331 43.435 32.5766C43.4214 32.5313 43.3982 32.4889 43.3666 32.4519C43.335 32.4149 43.2958 32.384 43.2511 32.3612C43.2064 32.3383 43.1573 32.3238 43.1065 32.3186C43.0557 32.3134 43.0043 32.3176 42.9553 32.3309ZM41.902 27.9264C41.3075 28.2912 40.9738 28.0637 41.172 27.4224L41.902 25.0349C42.0897 24.3926 41.829 23.4989 41.2971 23.0477L39.4617 21.4608C38.9403 21.0096 39.0863 20.6448 39.8058 20.6486L42.4755 20.6669C43.1847 20.6717 43.9564 20.1581 44.1858 19.5264L45.1244 16.9229C45.3538 16.2902 45.7188 16.2931 45.9378 16.9267L46.8347 19.5552C47.0537 20.1888 47.815 20.7331 48.5241 20.7629L51.246 20.8771C51.9551 20.9069 52.0907 21.2746 51.5275 21.6931L49.3897 23.303C48.837 23.7216 48.5241 24.5933 48.7014 25.2394L49.275 27.3802C49.4418 28.0253 49.0977 28.2538 48.5033 27.8851L46.3445 26.5507C45.7501 26.183 44.7803 26.1802 44.1754 26.544L41.902 27.9264Z" fill="white"/>
</svg>
